<?xml version="1.0" encoding="UTF-8"?>
<svg xmlns="http://www.w3.org/2000/svg" version="1.1" viewBox="0 0 56 54.7">
  <!-- Generator: Adobe Illustrator 28.7.7, SVG Export Plug-In . SVG Version: 1.2.0 Build 194)  -->
  <g>
    <g id="_Ñëîé_1" data-name="Ñëîé_1">
      <g>
        <polygon points="21.02 29.9 26.8 29.9 23.84 20.32 21.02 29.9"/>
        <path d="M45.94,0H10.06C4.5,0,0,4.5,0,10.06v34.59c0,5.55,4.5,10.06,10.06,10.06h35.89c5.55,0,10.06-4.5,10.06-10.06V10.06C56,4.5,51.5,0,45.94,0ZM30.25,40.63l-1.98-5.96-8.66.06-1.94,5.9h-5.41l7.72-21.42c.38-1.04.57-2.14.57-3.25h6.6l8.82,24.67h-5.72ZM43.36,40.63h-5.12v-18.73h5.12v18.73ZM40.8,19.96c-1.63,0-2.94-1.32-2.94-2.94s1.32-2.94,2.94-2.94,2.94,1.32,2.94,2.94-1.32,2.94-2.94,2.94Z"/>
      </g>
    </g>
  </g>
</svg>