<svg width="30" height="53" viewBox="0 0 30 53" fill="none" xmlns="http://www.w3.org/2000/svg">
<path d="M17.0001 2.72562C17.0001 1.62105 16.1046 0.725617 15.0001 0.725616C13.8955 0.725616 13.0001 1.62105 13.0001 2.72562L17.0001 2.72562ZM13.5858 52.1398C14.3669 52.9209 15.6332 52.9209 16.4143 52.1398L29.1422 39.4119C29.9232 38.6309 29.9232 37.3645 29.1422 36.5835C28.3611 35.8024 27.0948 35.8024 26.3138 36.5835L15.0001 47.8972L3.68635 36.5835C2.9053 35.8024 1.63897 35.8024 0.857924 36.5835C0.0768751 37.3645 0.0768751 38.6309 0.857924 39.4119L13.5858 52.1398ZM15.0001 2.72562L13.0001 2.72562L13.0001 50.7256L15.0001 50.7256L17.0001 50.7256L17.0001 2.72562L15.0001 2.72562Z" fill="black"/>
</svg>
