<?xml version="1.0" encoding="UTF-8"?>
<svg xmlns="http://www.w3.org/2000/svg" version="1.1" viewBox="0 0 48 54.7">
  <defs>
    <style>
      .cls-1 {
        fill-rule: evenodd;
      }
    </style>
  </defs>
  <!-- Generator: Adobe Illustrator 28.7.7, SVG Export Plug-In . SVG Version: 1.2.0 Build 194)  -->
  <g>
    <g id="_Ñëîé_1" data-name="Ñëîé_1">
      <path class="cls-1" d="M-.22-.15l4.36,49.71,19.24,5.29,20.24-5.25L48.22-.07-.22-.15ZM40.01,18.49l-10.45,3.32h9.84l-.52,6.21-1.41,13.68-14.65,2.92h.02s-.03,0-.03,0h0s-12.9-2.67-12.9-2.67l-.84-6.53h-.02s-.44-3.22-.44-3.22l6.92.03.89,4.65,6.43,1.49v-.03l8.91-1.74.88-8.58-24.17-.13-.87-5.97h.04l16.63-4.64-17.06.02-.77-6.22h34.41l-.86,7.42Z"/>
    </g>
  </g>
</svg>