<svg width="56" height="56" viewBox="0 0 56 56" fill="none" xmlns="http://www.w3.org/2000/svg">
<path d="M27.9951 0.725586C12.5295 0.725586 0 13.3433 0 28.9178C0 41.3971 8.01262 51.9284 19.1478 55.6663C20.552 55.9135 21.0724 55.0631 21.0724 54.3313C21.0724 53.6589 21.0331 51.4439 21.0331 49.0805C14.0025 50.3858 12.176 47.35 11.6163 45.7678C11.3021 44.957 9.93723 42.4552 8.74908 41.7828C7.76714 41.2587 6.37279 39.9534 8.7098 39.9138C10.9192 39.8743 12.4903 41.9608 13.0107 42.8013C15.5343 47.0632 19.5602 45.8667 21.1608 45.1251C21.4063 43.2957 22.1427 42.0596 22.9479 41.3576C16.7224 40.6555 10.2122 38.2229 10.2122 27.4345C10.2122 24.3691 11.2923 21.8277 13.0794 19.8599C12.7947 19.1578 11.8225 16.2605 13.3642 12.3842C13.3642 12.3842 15.711 11.6425 21.0626 15.2716C23.3014 14.6387 25.6777 14.3223 28.0638 14.3223C30.4499 14.3223 32.8262 14.6387 35.0651 15.2716C40.4166 11.603 42.7635 12.3842 42.7635 12.3842C44.3051 16.2605 43.3232 19.1479 43.0482 19.8599C44.8354 21.8376 45.9155 24.3394 45.9155 27.4345C45.9155 38.2526 39.3659 40.6555 33.1405 41.3576C34.1518 42.2376 35.0258 43.9286 35.0258 46.5787C35.0258 50.3462 34.9865 53.382 34.9865 54.3313C34.9865 55.0729 35.5069 55.953 36.9111 55.6663C47.9677 51.9284 55.9902 41.3576 55.9902 28.9178C56 13.3433 43.4705 0.725586 27.9951 0.725586Z" fill="black"/>
</svg>
