<?xml version="1.0" encoding="UTF-8"?>
<svg xmlns="http://www.w3.org/2000/svg" version="1.1" viewBox="0 0 55 55">
  <!-- Generator: Adobe Illustrator 28.7.7, SVG Export Plug-In . SVG Version: 1.2.0 Build 194)  -->
  <g>
    <g id="_Ñëîé_1" data-name="Ñëîé_1">
      <path d="M27.5,0C12.31,0,0,12.62,0,28.2c0,12.48,7.87,23.01,18.8,26.75,1.38.25,1.89-.6,1.89-1.34,0-.67-.03-2.89-.03-5.25-6.91,1.3-8.7-1.73-9.25-3.31-.31-.81-1.65-3.31-2.82-3.98-.96-.53-2.34-1.83-.03-1.87,2.17-.04,3.71,2.04,4.23,2.89,2.48,4.26,6.43,3.07,8.01,2.33.24-1.83.96-3.07,1.75-3.77-6.12-.7-12.51-3.14-12.51-13.92,0-3.07,1.07-5.6,2.82-7.58-.28-.7-1.24-3.59.28-7.47,0,0,2.3-.74,7.56,2.89,2.2-.63,4.54-.95,6.88-.95s4.67.32,6.88.95c5.26-3.67,7.56-2.89,7.56-2.89,1.51,3.88.55,6.77.28,7.47,1.75,1.97,2.82,4.48,2.82,7.58,0,10.82-6.43,13.22-12.55,13.92,1,.88,1.86,2.57,1.86,5.22,0,3.77-.03,6.8-.03,7.75,0,.74.52,1.62,1.89,1.34,10.86-3.74,18.73-14.31,18.73-26.75C55,12.62,42.69,0,27.5,0Z"/>
    </g>
  </g>
</svg>