<?xml version="1.0" encoding="UTF-8"?>
<svg xmlns="http://www.w3.org/2000/svg" version="1.1" viewBox="0 0 55 54.7">
  <!-- Generator: Adobe Illustrator 28.7.7, SVG Export Plug-In . SVG Version: 1.2.0 Build 194)  -->
  <g>
    <g id="_Ñëîé_1" data-name="Ñëîé_1">
      <g>
        <path d="M28.8,30.39v1.52c0,2.51,2.03,4.54,4.54,4.54h2v-10.6h-2c-2.51,0-4.54,2.03-4.54,4.54Z"/>
        <path d="M45.44,0H9.56C4,0-.5,4.5-.5,10.06v34.59c0,5.55,4.5,10.06,10.06,10.06h35.89c5.55,0,10.06-4.5,10.06-10.06V10.06C55.5,4.5,51,0,45.44,0ZM19.67,40.86h-5.36v-24.79h5.36v24.79ZM40.69,21.43v17.43c-.06,1.59-5.36,2-5.36,2h-3.27c-4.59,0-8.32-3.72-8.32-8.32v-2.79c0-4.59,3.72-8.32,8.32-8.32h3.27v-7.6h5.36v7.6Z"/>
      </g>
    </g>
  </g>
</svg>