<?xml version="1.0" encoding="UTF-8"?>
<svg xmlns="http://www.w3.org/2000/svg" version="1.1" viewBox="0 0 48 54.7">
  <defs>
    <style>
      .cls-1 {
        fill-rule: evenodd;
      }
    </style>
  </defs>
  <!-- Generator: Adobe Illustrator 28.7.7, SVG Export Plug-In . SVG Version: 1.2.0 Build 194)  -->
  <g>
    <g id="_Ñëîé_1" data-name="Ñëîé_1">
      <path class="cls-1" d="M-.22-.15l4.36,49.71,21.6,5.29,17.88-5.25L48.22-.07-.22-.15ZM19.71,36.21l-.02.11v5.32s-4.86-.77-4.86-.77l-7.71-.86-.55-5.48,7.5.96.03-24.02h5.63s-.05,24.74-.05,24.74h.02ZM39.4,23.48l-.36,5.63h-.05s-.31,6.65-.31,6.65h.02s-.21,5.63-.21,5.63h-12.95l.09-5.4,6.98-.12.36-6.74-7.6.02v-5.67h.03l-.02-6.44h0v-5.56h14.77l-.75,5.68-8.38-.07.02,6.4h8.37Z"/>
    </g>
  </g>
</svg>