<?xml version="1.0" encoding="UTF-8"?>
<svg xmlns="http://www.w3.org/2000/svg" version="1.1" viewBox="0 0 55 55">
  <!-- Generator: Adobe Illustrator 28.7.7, SVG Export Plug-In . SVG Version: 1.2.0 Build 194)  -->
  <g>
    <g id="_Ñëîé_1" data-name="Ñëîé_1">
      <g>
        <path d="M27.5,0C12.34,0,0,12.34,0,27.5s12.34,27.5,27.5,27.5,27.5-12.34,27.5-27.5S42.66,0,27.5,0ZM20.62,39.86c0,.25-.21.46-.46.46h-5.3c-.25,0-.46-.21-.46-.46v-17.79c0-.25.21-.46.46-.46h5.3c.25,0,.46.21.46.46v17.79ZM17.33,19.24c-1.84,0-3.33-1.49-3.33-3.33s1.49-3.33,3.33-3.33,3.33,1.49,3.33,3.33-1.49,3.33-3.33,3.33ZM43.05,39.86c0,.25-.21.46-.46.46h-5.3c-.25,0-.46-.21-.46-.46v-9.55c0-2.51-.9-4.23-3.15-4.23-1.72,0-2.74,1.16-3.19,2.27-.16.4-.21.96-.21,1.52v9.99c0,.25-.21.46-.46.46h-5.3c-.25,0-.46-.2-.46-.46.01-2.54.07-14.88.01-17.78,0-.26.2-.46.46-.46h5.29c.25,0,.46.21.46.46v2.19c.83-1.27,2.3-3.09,5.61-3.09,4.09,0,7.16,2.67,7.16,8.42v10.27Z"/>
        <path d="M30.28,24.33v-.06s-.03.04-.04.06h.04Z"/>
      </g>
    </g>
  </g>
</svg>