<svg width="55" height="56" viewBox="0 0 55 56" fill="none" xmlns="http://www.w3.org/2000/svg">
<g clip-path="url(#clip0_204_356)">
<path d="M27.505 0.725586C12.3344 0.725586 0 13.06 0 28.2306C0 43.4013 12.3344 55.7357 27.505 55.7357C42.6757 55.7357 55.0101 43.4013 55.0101 28.2306C55.0101 13.06 42.6656 0.725586 27.505 0.725586ZM20.6212 40.5852C20.6212 40.8375 20.4193 41.0495 20.1569 41.0495H14.8578C14.6054 41.0495 14.3935 40.8476 14.3935 40.5852V22.8003C14.3935 22.5479 14.5953 22.336 14.8578 22.336H20.1569C20.4092 22.336 20.6212 22.5378 20.6212 22.8003V40.5852ZM17.3307 19.964C15.4937 19.964 13.9998 18.4701 13.9998 16.6331C13.9998 14.7961 15.4937 13.3022 17.3307 13.3022C19.1677 13.3022 20.6616 14.7961 20.6616 16.6331C20.6616 18.4701 19.1677 19.964 17.3307 19.964ZM43.0492 40.5852C43.0492 40.8375 42.8473 41.0495 42.5849 41.0495H37.2857C37.0334 41.0495 36.8214 40.8476 36.8214 40.5852V31.0367C36.8214 28.5233 35.9231 26.8074 33.6722 26.8074C31.9563 26.8074 30.9369 27.9581 30.4827 29.0785C30.3212 29.4822 30.2808 30.0374 30.2808 30.5925V40.5852C30.2808 40.8375 30.0789 41.0495 29.8165 41.0495H24.5173C24.265 41.0495 24.053 40.8476 24.053 40.5852C24.0631 38.0416 24.1136 25.7072 24.0631 22.8003C24.0631 22.5479 24.265 22.336 24.5274 22.336H29.8165C30.0688 22.336 30.2808 22.5378 30.2808 22.8003V24.9906C31.1085 23.7188 32.5821 21.9019 35.8827 21.9019C39.9706 21.9019 43.0391 24.5767 43.0391 30.32V40.5852H43.0492Z" fill="black"/>
<path d="M30.2804 25.0506V24.9906C30.2804 24.9906 30.2504 25.0306 30.2404 25.0506H30.2804Z" fill="black"/>
</g>
<defs>
<clipPath id="clip0_204_356">
<rect width="55" height="55" fill="white" transform="translate(0 0.725586)"/>
</clipPath>
</defs>
</svg>
