<?xml version="1.0" encoding="UTF-8"?>
<svg xmlns="http://www.w3.org/2000/svg" version="1.1" viewBox="0 0 56 54.7">
  <!-- Generator: Adobe Illustrator 28.7.7, SVG Export Plug-In . SVG Version: 1.2.0 Build 194)  -->
  <g>
    <g id="_Ñëîé_1" data-name="Ñëîé_1">
      <g>
        <path d="M21.32,18.43h-3.36v7.89h3.36c1.09,0,2.08-.44,2.79-1.16.71-.71,1.16-1.7,1.16-2.79,0-2.18-1.77-3.95-3.95-3.95Z"/>
        <path d="M45.94,0H10.06C4.5,0,0,4.5,0,10.06v34.59c0,5.55,4.5,10.06,10.06,10.06h35.89c5.55,0,10.06-4.5,10.06-10.06V10.06C56,4.5,51.5,0,45.94,0ZM27.88,28.29c-1.51,1.51-3.6,2.45-5.91,2.45h-4v7.6h-5.12V14.01h9.13c4.62,0,8.36,3.74,8.36,8.36,0,2.31-.94,4.4-2.45,5.91ZM44.37,37.11c-1.34,1.21-3.2,1.73-4.97,1.87-.21.02-.42.03-.64.03-1.96.04-4.03-.38-5.81-1.2-.02,0-.04-.02-.06-.03,0-1.43,0-2.86,0-4.3,0,.08,1.42.42,1.6.48,1.62.53,3.55.93,5.26.71.36-.05.73-.14,1.01-.37,1.05-.87-.01-1.96-.87-2.38-.93-.45-1.93-.74-2.88-1.15-.9-.39-1.76-.89-2.48-1.56-2.37-2.21-2.28-5.93.14-8.08,1.37-1.22,3.22-1.6,5.01-1.68,1.85-.08,3.71.25,5.43.95.07.03.14.06.17.12.03.05.03.12.03.18,0,1.46,0,2.92,0,4.39-.28-.24-.66-.34-.99-.48-.36-.16-.72-.29-1.1-.41-1.32-.42-3.03-.81-4.38-.35-.5.17-.87.52-.87,1.08,0,.85.83,1.26,1.52,1.57.85.39,1.75.62,2.59,1.01,2.19,1.02,4.22,2.76,4.22,5.37,0,1.61-.75,3.15-1.94,4.23Z"/>
      </g>
    </g>
  </g>
</svg>