<svg width="16" height="15" viewBox="0 0 16 15" fill="none" xmlns="http://www.w3.org/2000/svg">
<path d="M7.04894 0.973482C7.3483 0.0521717 8.6517 0.0521722 8.95106 0.973483L10.0206 4.26528C10.1545 4.6773 10.5385 4.95626 10.9717 4.95626H14.4329C15.4016 4.95626 15.8044 6.19588 15.0207 6.76528L12.2205 8.79972C11.87 9.05437 11.7234 9.50573 11.8572 9.91776L12.9268 13.2096C13.2261 14.1309 12.1717 14.897 11.388 14.3276L8.58778 12.2931C8.2373 12.0385 7.7627 12.0385 7.41221 12.2931L4.61204 14.3276C3.82833 14.897 2.77385 14.1309 3.0732 13.2096L4.14277 9.91776C4.27665 9.50573 4.12999 9.05437 3.7795 8.79972L0.979333 6.76528C0.195619 6.19588 0.598395 4.95626 1.56712 4.95626H5.02832C5.46154 4.95626 5.8455 4.6773 5.97937 4.26528L7.04894 0.973482Z" fill="#FFAE00"/>
</svg>
