<svg width="55" height="56" viewBox="0 0 55 56" fill="none" xmlns="http://www.w3.org/2000/svg">
<g clip-path="url(#clip0_204_340)">
<path d="M28.7946 13.2188C21.2383 13.2188 15.0925 19.3646 15.0925 26.9209C15.0925 29.8124 15.9892 32.5831 17.6818 34.9306C17.9841 35.3538 18.0445 35.9079 17.8229 36.3814L16.2411 39.8674L20.7849 38.6181C20.9058 38.5879 21.0368 38.5677 21.1678 38.5677C21.4197 38.5677 21.6715 38.6382 21.9033 38.7692C23.9888 39.9883 26.3766 40.6331 28.8047 40.6331C36.361 40.6331 42.5069 34.4873 42.5069 26.931C42.5069 19.3746 36.361 13.2288 28.8047 13.2288L28.7946 13.2188ZM36.9454 32.2406C36.4316 33.4798 35.1722 34.2757 33.8826 34.5175C32.6534 34.7493 31.6459 34.3563 30.5074 33.9835C29.4898 33.6511 28.5125 33.1574 27.6058 32.6033C25.7923 31.495 24.2205 30.0039 22.9612 28.2911C22.5783 27.7672 22.2156 27.2231 21.8932 26.6589C21.46 25.9134 21.067 25.1275 20.8655 24.2913C20.7849 23.9387 20.7346 23.586 20.7346 23.2233C20.7245 21.9539 21.2081 20.6743 22.2055 19.8482C22.7899 19.3746 23.6463 19.1631 24.3011 19.5358C25.0165 19.9388 25.3792 20.9464 25.7117 21.6617C25.9736 22.2158 26.2658 22.9513 26.155 23.5659C26.0441 24.1905 25.5505 24.7144 25.1575 25.1779C24.8956 25.4902 24.8553 25.7522 25.0769 26.0947C26.3766 28.2609 28.1901 29.8427 30.5477 30.7797C30.8701 30.9106 31.122 30.8703 31.3235 30.6084C31.7265 30.1046 32.1295 29.1273 32.7642 28.8654C33.5803 28.5329 34.4871 28.9964 35.1823 29.4094C35.8271 29.7923 36.9152 30.2759 37.0865 31.0718C37.1671 31.4547 37.0865 31.8678 36.9454 32.2305V32.2406Z" fill="black"/>
<path d="M27.495 0.725586C12.3319 0.725586 0 13.0575 0 28.2205C0 43.3836 12.3319 55.7155 27.495 55.7155C42.658 55.7155 54.9899 43.3836 54.9899 28.2205C54.9899 13.0575 42.658 0.725586 27.495 0.725586ZM28.7947 43.5246C26.0643 43.5246 23.3742 42.8496 20.9764 41.5701L14.0245 43.4743C13.8936 43.5045 13.7727 43.5246 13.6417 43.5246C13.2185 43.5246 12.8155 43.3433 12.5435 43.0108C12.1808 42.5877 12.0901 41.9831 12.3219 41.4693L14.8406 35.9179C13.1077 33.238 12.1909 30.1449 12.1909 26.9209C12.1909 17.7626 19.6364 10.3171 28.7947 10.3171C37.9529 10.3171 45.3984 17.7626 45.3984 26.9209C45.3984 36.0791 37.9529 43.5246 28.7947 43.5246Z" fill="black"/>
</g>
<defs>
<clipPath id="clip0_204_340">
<rect width="55" height="55" fill="white" transform="translate(0 0.725586)"/>
</clipPath>
</defs>
</svg>


