<?xml version="1.0" encoding="UTF-8"?>
<svg xmlns="http://www.w3.org/2000/svg" version="1.1" viewBox="0 0 55 55">
  <!-- Generator: Adobe Illustrator 28.7.7, SVG Export Plug-In . SVG Version: 1.2.0 Build 194)  -->
  <g>
    <g id="_Ñëîé_1" data-name="Ñëîé_1">
      <g>
        <path d="M28.79,12.61c-7.5,0-13.6,6.1-13.6,13.6,0,2.87.89,5.62,2.57,7.95.3.42.36.97.14,1.44l-1.57,3.46,4.51-1.24c.12-.03.25-.05.38-.05.25,0,.5.07.73.2,2.07,1.21,4.44,1.85,6.85,1.85,7.5,0,13.6-6.1,13.6-13.6s-6.1-13.6-13.6-13.6ZM36.87,31.48c-.51,1.23-1.76,2.02-3.04,2.26-1.22.23-2.22-.16-3.35-.53-1.01-.33-1.98-.82-2.88-1.37-1.8-1.1-3.36-2.58-4.61-4.28-.38-.52-.74-1.06-1.06-1.62-.43-.74-.82-1.52-1.02-2.35-.08-.35-.13-.7-.13-1.06-.01-1.26.47-2.53,1.46-3.35.58-.47,1.43-.68,2.08-.31.71.4,1.07,1.4,1.4,2.11.26.55.55,1.28.44,1.89-.11.62-.6,1.14-.99,1.6-.26.31-.3.57-.08.91,1.29,2.15,3.09,3.72,5.43,4.65.32.13.57.09.77-.17.4-.5.8-1.47,1.43-1.73.81-.33,1.71.13,2.4.54.64.38,1.72.86,1.89,1.65.08.38,0,.79-.14,1.15Z"/>
        <path d="M27.5.21C12.45.21.21,12.45.21,27.5s12.24,27.29,27.29,27.29,27.29-12.24,27.29-27.29S42.55.21,27.5.21ZM28.79,42.69c-2.71,0-5.38-.67-7.76-1.94l-6.9,1.89c-.13.03-.25.05-.38.05-.42,0-.82-.18-1.09-.51-.36-.42-.45-1.02-.22-1.53l2.5-5.51c-1.72-2.66-2.63-5.73-2.63-8.93,0-9.09,7.39-16.48,16.48-16.48s16.48,7.39,16.48,16.48-7.39,16.48-16.48,16.48Z"/>
      </g>
    </g>
  </g>
</svg>